<svg xmlns="http://www.w3.org/2000/svg" xmlns:xlink="http://www.w3.org/1999/xlink" viewBox="0 0 300 282"><defs><style>.cls-1,.cls-2,.cls-6{fill:none;stroke:#000;stroke-miterlimit:10;}.cls-2,.cls-6{stroke-width:2px;}.cls-2{stroke-dasharray:4 4;}.cls-3{clip-path:url(#clip-path);}.cls-4{clip-path:url(#clip-path-2);}.cls-5{clip-path:url(#clip-path-3);}.cls-7{font-size:16px;font-family:ArialMT, Arial;}.cls-8{letter-spacing:-0.02em;}</style><clipPath id="clip-path"><circle class="cls-1" cx="150" cy="86.05" r="50"/></clipPath><clipPath id="clip-path-2"><circle id="SVGID" class="cls-1" cx="150" cy="185.34" r="37.5"/></clipPath><clipPath id="clip-path-3"><circle id="SVGID-2" data-name="SVGID" class="cls-1" cx="150" cy="258.07" r="23.44"/></clipPath></defs><title>Asset 7</title><g id="Layer_2" data-name="Layer 2"><g id="Layer_1-2" data-name="Layer 1"><line class="cls-2" x1="300" y1="24.25" y2="24.25"/><g class="cls-3"><circle class="cls-1" cx="103.13" cy="39.17" r="3.13"/><circle class="cls-1" cx="109.38" cy="39.17" r="3.13"/><circle class="cls-1" cx="115.63" cy="39.17" r="3.13"/><circle class="cls-1" cx="121.88" cy="39.17" r="3.13"/><circle class="cls-1" cx="128.13" cy="39.17" r="3.13"/><circle class="cls-1" cx="134.38" cy="39.17" r="3.13"/><circle class="cls-1" cx="140.63" cy="39.17" r="3.13"/><circle class="cls-1" cx="146.88" cy="39.17" r="3.13"/><circle class="cls-1" cx="153.13" cy="39.17" r="3.13"/><circle class="cls-1" cx="159.38" cy="39.17" r="3.13"/><circle class="cls-1" cx="165.63" cy="39.17" r="3.13"/><circle class="cls-1" cx="171.88" cy="39.17" r="3.13"/><circle class="cls-1" cx="178.13" cy="39.17" r="3.13"/><circle class="cls-1" cx="184.38" cy="39.17" r="3.13"/><circle class="cls-1" cx="190.63" cy="39.17" r="3.13"/><circle class="cls-1" cx="196.88" cy="39.17" r="3.13"/><circle class="cls-1" cx="103.13" cy="45.42" r="3.13"/><circle class="cls-1" cx="109.38" cy="45.42" r="3.13"/><circle class="cls-1" cx="115.63" cy="45.42" r="3.13"/><circle class="cls-1" cx="121.88" cy="45.42" r="3.13"/><circle class="cls-1" cx="128.13" cy="45.42" r="3.13"/><circle class="cls-1" cx="134.38" cy="45.42" r="3.13"/><circle class="cls-1" cx="140.63" cy="45.42" r="3.13"/><circle class="cls-1" cx="146.88" cy="45.42" r="3.13"/><circle class="cls-1" cx="153.13" cy="45.42" r="3.13"/><circle class="cls-1" cx="159.38" cy="45.42" r="3.13"/><circle class="cls-1" cx="165.63" cy="45.42" r="3.13"/><circle class="cls-1" cx="171.88" cy="45.42" r="3.13"/><circle class="cls-1" cx="178.13" cy="45.42" r="3.13"/><circle class="cls-1" cx="184.38" cy="45.42" r="3.13"/><circle class="cls-1" cx="190.63" cy="45.42" r="3.13"/><circle class="cls-1" cx="196.88" cy="45.42" r="3.13"/><circle class="cls-1" cx="103.13" cy="51.67" r="3.13"/><circle class="cls-1" cx="109.38" cy="51.67" r="3.13"/><circle class="cls-1" cx="115.63" cy="51.67" r="3.13"/><circle class="cls-1" cx="121.88" cy="51.67" r="3.13"/><circle class="cls-1" cx="128.13" cy="51.67" r="3.13"/><circle class="cls-1" cx="134.38" cy="51.67" r="3.13"/><circle class="cls-1" cx="140.63" cy="51.67" r="3.13"/><circle class="cls-1" cx="146.88" cy="51.67" r="3.13"/><circle class="cls-1" cx="153.13" cy="51.67" r="3.13"/><circle class="cls-1" cx="159.38" cy="51.67" r="3.13"/><circle class="cls-1" cx="165.63" cy="51.67" r="3.13"/><circle class="cls-1" cx="171.88" cy="51.67" r="3.13"/><circle class="cls-1" cx="178.13" cy="51.67" r="3.13"/><circle class="cls-1" cx="184.38" cy="51.67" r="3.13"/><circle class="cls-1" cx="190.63" cy="51.67" r="3.13"/><circle class="cls-1" cx="196.88" cy="51.67" r="3.13"/><circle class="cls-1" cx="103.13" cy="57.92" r="3.13"/><circle class="cls-1" cx="109.38" cy="57.92" r="3.13"/><circle class="cls-1" cx="115.63" cy="57.92" r="3.13"/><circle class="cls-1" cx="121.88" cy="57.92" r="3.13"/><circle class="cls-1" cx="128.13" cy="57.92" r="3.13"/><circle class="cls-1" cx="134.38" cy="57.92" r="3.13"/><circle class="cls-1" cx="140.63" cy="57.92" r="3.13"/><circle class="cls-1" cx="146.88" cy="57.92" r="3.13"/><circle class="cls-1" cx="153.13" cy="57.92" r="3.13"/><circle class="cls-1" cx="159.38" cy="57.92" r="3.13"/><circle class="cls-1" cx="165.63" cy="57.92" r="3.13"/><circle class="cls-1" cx="171.88" cy="57.92" r="3.13"/><circle class="cls-1" cx="178.13" cy="57.92" r="3.13"/><circle class="cls-1" cx="184.38" cy="57.92" r="3.13"/><circle class="cls-1" cx="190.63" cy="57.92" r="3.13"/><circle class="cls-1" cx="196.88" cy="57.92" r="3.13"/><circle class="cls-1" cx="103.13" cy="64.17" r="3.13"/><circle class="cls-1" cx="109.38" cy="64.17" r="3.13"/><circle class="cls-1" cx="115.63" cy="64.17" r="3.13"/><circle class="cls-1" cx="121.88" cy="64.17" r="3.13"/><circle class="cls-1" cx="128.13" cy="64.17" r="3.13"/><circle class="cls-1" cx="134.38" cy="64.17" r="3.13"/><circle class="cls-1" cx="140.63" cy="64.17" r="3.13"/><circle class="cls-1" cx="146.88" cy="64.17" r="3.13"/><circle class="cls-1" cx="153.13" cy="64.17" r="3.13"/><circle class="cls-1" cx="159.38" cy="64.17" r="3.13"/><circle class="cls-1" cx="165.63" cy="64.17" r="3.13"/><circle class="cls-1" cx="171.88" cy="64.17" r="3.13"/><circle class="cls-1" cx="178.13" cy="64.17" r="3.13"/><circle class="cls-1" cx="184.38" cy="64.17" r="3.13"/><circle class="cls-1" cx="190.63" cy="64.17" r="3.13"/><circle class="cls-1" cx="196.88" cy="64.17" r="3.13"/><circle class="cls-1" cx="103.13" cy="70.42" r="3.13"/><circle class="cls-1" cx="109.38" cy="70.42" r="3.13"/><circle class="cls-1" cx="115.63" cy="70.42" r="3.13"/><circle class="cls-1" cx="121.88" cy="70.42" r="3.13"/><circle class="cls-1" cx="128.13" cy="70.42" r="3.13"/><circle class="cls-1" cx="134.38" cy="70.42" r="3.13"/><circle class="cls-1" cx="140.63" cy="70.42" r="3.13"/><circle class="cls-1" cx="146.88" cy="70.42" r="3.13"/><circle class="cls-1" cx="153.13" cy="70.42" r="3.13"/><circle class="cls-1" cx="159.38" cy="70.42" r="3.13"/><circle class="cls-1" cx="165.63" cy="70.42" r="3.13"/><circle class="cls-1" cx="171.88" cy="70.42" r="3.13"/><circle class="cls-1" cx="178.13" cy="70.42" r="3.13"/><circle class="cls-1" cx="184.38" cy="70.42" r="3.13"/><circle class="cls-1" cx="190.63" cy="70.42" r="3.13"/><circle class="cls-1" cx="196.88" cy="70.42" r="3.13"/><circle class="cls-1" cx="103.13" cy="76.67" r="3.13"/><circle class="cls-1" cx="109.38" cy="76.67" r="3.13"/><circle class="cls-1" cx="115.63" cy="76.67" r="3.13"/><circle class="cls-1" cx="121.88" cy="76.67" r="3.13"/><circle class="cls-1" cx="128.13" cy="76.67" r="3.13"/><circle class="cls-1" cx="134.38" cy="76.67" r="3.13"/><circle class="cls-1" cx="140.63" cy="76.67" r="3.13"/><circle class="cls-1" cx="146.88" cy="76.67" r="3.13"/><circle class="cls-1" cx="153.13" cy="76.67" r="3.13"/><circle class="cls-1" cx="159.38" cy="76.67" r="3.13"/><circle class="cls-1" cx="165.63" cy="76.67" r="3.13"/><circle class="cls-1" cx="171.88" cy="76.67" r="3.13"/><circle class="cls-1" cx="178.13" cy="76.67" r="3.13"/><circle class="cls-1" cx="184.38" cy="76.67" r="3.13"/><circle class="cls-1" cx="190.63" cy="76.67" r="3.13"/><circle class="cls-1" cx="196.88" cy="76.67" r="3.13"/><circle class="cls-1" cx="103.13" cy="82.92" r="3.13"/><circle class="cls-1" cx="109.38" cy="82.92" r="3.13"/><circle class="cls-1" cx="115.63" cy="82.92" r="3.13"/><circle class="cls-1" cx="121.88" cy="82.92" r="3.13"/><circle class="cls-1" cx="128.13" cy="82.92" r="3.13"/><circle class="cls-1" cx="134.38" cy="82.92" r="3.13"/><circle class="cls-1" cx="140.63" cy="82.92" r="3.13"/><circle class="cls-1" cx="146.88" cy="82.92" r="3.13"/><circle class="cls-1" cx="153.13" cy="82.92" r="3.13"/><circle class="cls-1" cx="159.38" cy="82.92" r="3.13"/><circle class="cls-1" cx="165.63" cy="82.92" r="3.13"/><circle class="cls-1" cx="171.88" cy="82.92" r="3.13"/><circle class="cls-1" cx="178.13" cy="82.92" r="3.13"/><circle class="cls-1" cx="184.38" cy="82.92" r="3.13"/><circle class="cls-1" cx="190.63" cy="82.92" r="3.13"/><circle class="cls-1" cx="196.88" cy="82.92" r="3.13"/><circle class="cls-1" cx="103.13" cy="89.17" r="3.13"/><circle class="cls-1" cx="109.38" cy="89.17" r="3.13"/><circle class="cls-1" cx="115.63" cy="89.17" r="3.13"/><circle class="cls-1" cx="121.88" cy="89.17" r="3.13"/><circle class="cls-1" cx="128.13" cy="89.17" r="3.13"/><circle class="cls-1" cx="134.38" cy="89.17" r="3.13"/><circle class="cls-1" cx="140.63" cy="89.17" r="3.13"/><circle class="cls-1" cx="146.88" cy="89.17" r="3.13"/><circle class="cls-1" cx="153.13" cy="89.17" r="3.13"/><circle class="cls-1" cx="159.38" cy="89.17" r="3.13"/><circle class="cls-1" cx="165.63" cy="89.17" r="3.13"/><circle class="cls-1" cx="171.88" cy="89.17" r="3.13"/><circle class="cls-1" cx="178.13" cy="89.17" r="3.13"/><circle class="cls-1" cx="184.38" cy="89.17" r="3.13"/><circle class="cls-1" cx="190.63" cy="89.17" r="3.13"/><circle class="cls-1" cx="196.88" cy="89.17" r="3.13"/><circle class="cls-1" cx="103.13" cy="95.42" r="3.13"/><circle class="cls-1" cx="109.38" cy="95.42" r="3.13"/><circle class="cls-1" cx="115.63" cy="95.42" r="3.13"/><circle class="cls-1" cx="121.88" cy="95.42" r="3.13"/><circle class="cls-1" cx="128.13" cy="95.42" r="3.13"/><circle class="cls-1" cx="134.38" cy="95.42" r="3.13"/><circle class="cls-1" cx="140.63" cy="95.42" r="3.13"/><circle class="cls-1" cx="146.88" cy="95.42" r="3.13"/><circle class="cls-1" cx="153.13" cy="95.42" r="3.13"/><circle class="cls-1" cx="159.38" cy="95.42" r="3.13"/><circle class="cls-1" cx="165.63" cy="95.42" r="3.13"/><circle class="cls-1" cx="171.88" cy="95.42" r="3.13"/><circle class="cls-1" cx="178.13" cy="95.42" r="3.13"/><circle class="cls-1" cx="184.38" cy="95.42" r="3.13"/><circle class="cls-1" cx="190.63" cy="95.42" r="3.13"/><circle class="cls-1" cx="196.88" cy="95.42" r="3.13"/><circle class="cls-1" cx="103.13" cy="101.67" r="3.13"/><circle class="cls-1" cx="109.38" cy="101.67" r="3.13"/><circle class="cls-1" cx="115.63" cy="101.67" r="3.13"/><circle class="cls-1" cx="121.88" cy="101.67" r="3.13"/><circle class="cls-1" cx="128.13" cy="101.67" r="3.13"/><circle class="cls-1" cx="134.38" cy="101.67" r="3.13"/><circle class="cls-1" cx="140.63" cy="101.67" r="3.13"/><circle class="cls-1" cx="146.88" cy="101.67" r="3.13"/><circle class="cls-1" cx="153.13" cy="101.67" r="3.13"/><circle class="cls-1" cx="159.38" cy="101.67" r="3.13"/><circle class="cls-1" cx="165.63" cy="101.67" r="3.13"/><circle class="cls-1" cx="171.88" cy="101.67" r="3.13"/><circle class="cls-1" cx="178.13" cy="101.67" r="3.13"/><circle class="cls-1" cx="184.38" cy="101.67" r="3.13"/><circle class="cls-1" cx="190.63" cy="101.67" r="3.13"/><circle class="cls-1" cx="196.88" cy="101.67" r="3.13"/><circle class="cls-1" cx="103.13" cy="107.92" r="3.13"/><circle class="cls-1" cx="109.38" cy="107.92" r="3.13"/><circle class="cls-1" cx="115.63" cy="107.92" r="3.13"/><circle class="cls-1" cx="121.88" cy="107.92" r="3.13"/><circle class="cls-1" cx="128.13" cy="107.92" r="3.13"/><circle class="cls-1" cx="134.38" cy="107.92" r="3.13"/><circle class="cls-1" cx="140.63" cy="107.92" r="3.13"/><circle class="cls-1" cx="146.88" cy="107.92" r="3.13"/><circle class="cls-1" cx="153.13" cy="107.92" r="3.13"/><circle class="cls-1" cx="159.38" cy="107.92" r="3.13"/><circle class="cls-1" cx="165.63" cy="107.92" r="3.13"/><circle class="cls-1" cx="171.88" cy="107.92" r="3.13"/><circle class="cls-1" cx="178.13" cy="107.92" r="3.13"/><circle class="cls-1" cx="184.38" cy="107.92" r="3.13"/><circle class="cls-1" cx="190.63" cy="107.92" r="3.13"/><circle class="cls-1" cx="196.88" cy="107.92" r="3.13"/><circle class="cls-1" cx="103.13" cy="114.17" r="3.13"/><circle class="cls-1" cx="109.38" cy="114.17" r="3.13"/><circle class="cls-1" cx="115.63" cy="114.17" r="3.13"/><circle class="cls-1" cx="121.88" cy="114.17" r="3.13"/><circle class="cls-1" cx="128.13" cy="114.17" r="3.13"/><circle class="cls-1" cx="134.38" cy="114.17" r="3.13"/><circle class="cls-1" cx="140.63" cy="114.17" r="3.13"/><circle class="cls-1" cx="146.88" cy="114.17" r="3.13"/><circle class="cls-1" cx="153.13" cy="114.17" r="3.13"/><circle class="cls-1" cx="159.38" cy="114.17" r="3.13"/><circle class="cls-1" cx="165.63" cy="114.17" r="3.13"/><circle class="cls-1" cx="171.88" cy="114.17" r="3.13"/><circle class="cls-1" cx="178.13" cy="114.17" r="3.13"/><circle class="cls-1" cx="184.38" cy="114.17" r="3.13"/><circle class="cls-1" cx="190.63" cy="114.17" r="3.13"/><circle class="cls-1" cx="196.88" cy="114.17" r="3.13"/><circle class="cls-1" cx="103.13" cy="120.42" r="3.13"/><circle class="cls-1" cx="109.38" cy="120.42" r="3.13"/><circle class="cls-1" cx="115.63" cy="120.42" r="3.13"/><circle class="cls-1" cx="121.88" cy="120.42" r="3.13"/><circle class="cls-1" cx="128.13" cy="120.42" r="3.13"/><circle class="cls-1" cx="134.38" cy="120.42" r="3.13"/><circle class="cls-1" cx="140.63" cy="120.42" r="3.13"/><circle class="cls-1" cx="146.88" cy="120.42" r="3.13"/><circle class="cls-1" cx="153.13" cy="120.42" r="3.13"/><circle class="cls-1" cx="159.38" cy="120.42" r="3.13"/><circle class="cls-1" cx="165.63" cy="120.42" r="3.13"/><circle class="cls-1" cx="171.88" cy="120.42" r="3.13"/><circle class="cls-1" cx="178.13" cy="120.42" r="3.13"/><circle class="cls-1" cx="184.38" cy="120.42" r="3.13"/><circle class="cls-1" cx="190.63" cy="120.42" r="3.13"/><circle class="cls-1" cx="196.88" cy="120.42" r="3.13"/><circle class="cls-1" cx="103.13" cy="126.67" r="3.13"/><circle class="cls-1" cx="109.38" cy="126.67" r="3.13"/><circle class="cls-1" cx="115.63" cy="126.67" r="3.13"/><circle class="cls-1" cx="121.88" cy="126.67" r="3.13"/><circle class="cls-1" cx="128.13" cy="126.67" r="3.13"/><circle class="cls-1" cx="134.38" cy="126.67" r="3.13"/><circle class="cls-1" cx="140.63" cy="126.67" r="3.13"/><circle class="cls-1" cx="146.88" cy="126.67" r="3.13"/><circle class="cls-1" cx="153.13" cy="126.67" r="3.13"/><circle class="cls-1" cx="159.38" cy="126.67" r="3.13"/><circle class="cls-1" cx="165.63" cy="126.67" r="3.13"/><circle class="cls-1" cx="171.88" cy="126.67" r="3.13"/><circle class="cls-1" cx="178.13" cy="126.67" r="3.13"/><circle class="cls-1" cx="184.38" cy="126.67" r="3.13"/><circle class="cls-1" cx="190.63" cy="126.67" r="3.13"/><circle class="cls-1" cx="196.88" cy="126.67" r="3.13"/><circle class="cls-1" cx="103.13" cy="132.92" r="3.13"/><circle class="cls-1" cx="109.38" cy="132.92" r="3.13"/><circle class="cls-1" cx="115.63" cy="132.92" r="3.13"/><circle class="cls-1" cx="121.88" cy="132.92" r="3.13"/><circle class="cls-1" cx="128.13" cy="132.92" r="3.13"/><circle class="cls-1" cx="134.38" cy="132.92" r="3.13"/><circle class="cls-1" cx="140.63" cy="132.92" r="3.13"/><circle class="cls-1" cx="146.88" cy="132.92" r="3.13"/><circle class="cls-1" cx="153.13" cy="132.92" r="3.13"/><circle class="cls-1" cx="159.38" cy="132.92" r="3.13"/><circle class="cls-1" cx="165.63" cy="132.92" r="3.13"/><circle class="cls-1" cx="171.88" cy="132.92" r="3.13"/><circle class="cls-1" cx="178.13" cy="132.92" r="3.13"/><circle class="cls-1" cx="184.38" cy="132.92" r="3.13"/><circle class="cls-1" cx="190.63" cy="132.92" r="3.13"/><circle class="cls-1" cx="196.88" cy="132.92" r="3.13"/></g><circle class="cls-1" cx="150" cy="86.05" r="50"/><g class="cls-4"><circle class="cls-1" cx="103.13" cy="125.96" r="3.13"/><circle class="cls-1" cx="109.38" cy="125.96" r="3.13"/><circle class="cls-1" cx="115.63" cy="125.96" r="3.13"/><circle class="cls-1" cx="121.88" cy="125.96" r="3.13"/><circle class="cls-1" cx="128.13" cy="125.96" r="3.13"/><circle class="cls-1" cx="134.38" cy="125.96" r="3.13"/><circle class="cls-1" cx="140.63" cy="125.96" r="3.13"/><circle class="cls-1" cx="146.88" cy="125.96" r="3.13"/><circle class="cls-1" cx="153.13" cy="125.96" r="3.13"/><circle class="cls-1" cx="159.38" cy="125.96" r="3.13"/><circle class="cls-1" cx="165.63" cy="125.96" r="3.13"/><circle class="cls-1" cx="171.88" cy="125.96" r="3.13"/><circle class="cls-1" cx="178.13" cy="125.96" r="3.13"/><circle class="cls-1" cx="184.38" cy="125.96" r="3.13"/><circle class="cls-1" cx="190.63" cy="125.96" r="3.13"/><circle class="cls-1" cx="196.88" cy="125.96" r="3.13"/><circle class="cls-1" cx="103.13" cy="132.21" r="3.13"/><circle class="cls-1" cx="109.38" cy="132.21" r="3.13"/><circle class="cls-1" cx="115.63" cy="132.21" r="3.13"/><circle class="cls-1" cx="121.88" cy="132.21" r="3.13"/><circle class="cls-1" cx="128.13" cy="132.21" r="3.13"/><circle class="cls-1" cx="134.38" cy="132.21" r="3.13"/><circle class="cls-1" cx="140.63" cy="132.21" r="3.13"/><circle class="cls-1" cx="146.88" cy="132.21" r="3.13"/><circle class="cls-1" cx="153.13" cy="132.21" r="3.13"/><circle class="cls-1" cx="159.38" cy="132.21" r="3.13"/><circle class="cls-1" cx="165.63" cy="132.21" r="3.13"/><circle class="cls-1" cx="171.88" cy="132.21" r="3.13"/><circle class="cls-1" cx="178.13" cy="132.21" r="3.13"/><circle class="cls-1" cx="184.38" cy="132.21" r="3.13"/><circle class="cls-1" cx="190.63" cy="132.21" r="3.13"/><circle class="cls-1" cx="196.88" cy="132.21" r="3.13"/><circle class="cls-1" cx="103.13" cy="138.46" r="3.13"/><circle class="cls-1" cx="109.38" cy="138.46" r="3.13"/><circle class="cls-1" cx="115.63" cy="138.46" r="3.13"/><circle class="cls-1" cx="121.88" cy="138.46" r="3.13"/><circle class="cls-1" cx="128.13" cy="138.46" r="3.13"/><circle class="cls-1" cx="134.38" cy="138.46" r="3.13"/><circle class="cls-1" cx="140.63" cy="138.46" r="3.13"/><circle class="cls-1" cx="146.88" cy="138.46" r="3.13"/><circle class="cls-1" cx="153.13" cy="138.46" r="3.13"/><circle class="cls-1" cx="159.38" cy="138.46" r="3.13"/><circle class="cls-1" cx="165.63" cy="138.46" r="3.13"/><circle class="cls-1" cx="171.88" cy="138.46" r="3.13"/><circle class="cls-1" cx="178.13" cy="138.46" r="3.13"/><circle class="cls-1" cx="184.38" cy="138.46" r="3.13"/><circle class="cls-1" cx="190.63" cy="138.46" r="3.13"/><circle class="cls-1" cx="196.88" cy="138.46" r="3.13"/><circle class="cls-1" cx="103.13" cy="144.71" r="3.13"/><circle class="cls-1" cx="109.38" cy="144.71" r="3.13"/><circle class="cls-1" cx="115.63" cy="144.71" r="3.13"/><circle class="cls-1" cx="121.88" cy="144.71" r="3.13"/><circle class="cls-1" cx="128.13" cy="144.71" r="3.13"/><circle class="cls-1" cx="134.38" cy="144.71" r="3.13"/><circle class="cls-1" cx="140.63" cy="144.71" r="3.13"/><circle class="cls-1" cx="146.88" cy="144.71" r="3.13"/><circle class="cls-1" cx="153.13" cy="144.71" r="3.13"/><circle class="cls-1" cx="159.38" cy="144.71" r="3.13"/><circle class="cls-1" cx="165.63" cy="144.71" r="3.13"/><circle class="cls-1" cx="171.88" cy="144.71" r="3.13"/><circle class="cls-1" cx="178.13" cy="144.71" r="3.13"/><circle class="cls-1" cx="184.38" cy="144.71" r="3.13"/><circle class="cls-1" cx="190.63" cy="144.71" r="3.13"/><circle class="cls-1" cx="196.88" cy="144.71" r="3.13"/><circle class="cls-1" cx="103.13" cy="150.96" r="3.12"/><circle class="cls-1" cx="109.38" cy="150.96" r="3.12"/><circle class="cls-1" cx="115.63" cy="150.96" r="3.12"/><circle class="cls-1" cx="121.88" cy="150.96" r="3.12"/><circle class="cls-1" cx="128.13" cy="150.96" r="3.12"/><circle class="cls-1" cx="134.38" cy="150.96" r="3.12"/><circle class="cls-1" cx="140.63" cy="150.96" r="3.12"/><circle class="cls-1" cx="146.88" cy="150.96" r="3.12"/><circle class="cls-1" cx="153.13" cy="150.96" r="3.12"/><circle class="cls-1" cx="159.38" cy="150.96" r="3.12"/><circle class="cls-1" cx="165.63" cy="150.96" r="3.12"/><circle class="cls-1" cx="171.88" cy="150.96" r="3.12"/><circle class="cls-1" cx="178.13" cy="150.96" r="3.12"/><circle class="cls-1" cx="184.38" cy="150.96" r="3.12"/><circle class="cls-1" cx="190.63" cy="150.96" r="3.12"/><circle class="cls-1" cx="196.88" cy="150.96" r="3.12"/><circle class="cls-1" cx="103.13" cy="157.21" r="3.13"/><circle class="cls-1" cx="109.38" cy="157.21" r="3.13"/><circle class="cls-1" cx="115.63" cy="157.21" r="3.13"/><circle class="cls-1" cx="121.88" cy="157.21" r="3.13"/><circle class="cls-1" cx="128.13" cy="157.21" r="3.13"/><circle class="cls-1" cx="134.38" cy="157.21" r="3.13"/><circle class="cls-1" cx="140.63" cy="157.21" r="3.13"/><circle class="cls-1" cx="146.88" cy="157.21" r="3.13"/><circle class="cls-1" cx="153.13" cy="157.21" r="3.13"/><circle class="cls-1" cx="159.38" cy="157.21" r="3.13"/><circle class="cls-1" cx="165.63" cy="157.21" r="3.13"/><circle class="cls-1" cx="171.88" cy="157.21" r="3.13"/><circle class="cls-1" cx="178.13" cy="157.21" r="3.13"/><circle class="cls-1" cx="184.38" cy="157.21" r="3.13"/><circle class="cls-1" cx="190.63" cy="157.21" r="3.13"/><circle class="cls-1" cx="196.88" cy="157.21" r="3.13"/><circle class="cls-1" cx="103.13" cy="163.46" r="3.13"/><circle class="cls-1" cx="109.38" cy="163.46" r="3.13"/><circle class="cls-1" cx="115.63" cy="163.46" r="3.13"/><circle class="cls-1" cx="121.88" cy="163.46" r="3.13"/><circle class="cls-1" cx="128.13" cy="163.46" r="3.13"/><circle class="cls-1" cx="134.38" cy="163.46" r="3.13"/><circle class="cls-1" cx="140.63" cy="163.46" r="3.13"/><circle class="cls-1" cx="146.88" cy="163.46" r="3.13"/><circle class="cls-1" cx="153.13" cy="163.46" r="3.13"/><circle class="cls-1" cx="159.38" cy="163.46" r="3.13"/><circle class="cls-1" cx="165.63" cy="163.46" r="3.13"/><circle class="cls-1" cx="171.88" cy="163.46" r="3.13"/><circle class="cls-1" cx="178.13" cy="163.46" r="3.13"/><circle class="cls-1" cx="184.38" cy="163.46" r="3.13"/><circle class="cls-1" cx="190.63" cy="163.46" r="3.13"/><circle class="cls-1" cx="196.88" cy="163.46" r="3.13"/><circle class="cls-1" cx="103.13" cy="169.71" r="3.13"/><circle class="cls-1" cx="109.38" cy="169.71" r="3.13"/><circle class="cls-1" cx="115.63" cy="169.71" r="3.13"/><circle class="cls-1" cx="121.88" cy="169.71" r="3.13"/><circle class="cls-1" cx="128.13" cy="169.71" r="3.13"/><circle class="cls-1" cx="134.38" cy="169.71" r="3.13"/><circle class="cls-1" cx="140.63" cy="169.71" r="3.13"/><circle class="cls-1" cx="146.88" cy="169.71" r="3.13"/><circle class="cls-1" cx="153.13" cy="169.71" r="3.13"/><circle class="cls-1" cx="159.38" cy="169.71" r="3.13"/><circle class="cls-1" cx="165.63" cy="169.71" r="3.13"/><circle class="cls-1" cx="171.88" cy="169.71" r="3.13"/><circle class="cls-1" cx="178.13" cy="169.71" r="3.13"/><circle class="cls-1" cx="184.38" cy="169.71" r="3.13"/><circle class="cls-1" cx="190.63" cy="169.71" r="3.13"/><circle class="cls-1" cx="196.88" cy="169.71" r="3.13"/><circle class="cls-1" cx="103.13" cy="175.96" r="3.13"/><circle class="cls-1" cx="109.38" cy="175.96" r="3.13"/><circle class="cls-1" cx="115.63" cy="175.96" r="3.13"/><circle class="cls-1" cx="121.88" cy="175.96" r="3.13"/><circle class="cls-1" cx="128.13" cy="175.96" r="3.13"/><circle class="cls-1" cx="134.38" cy="175.96" r="3.13"/><circle class="cls-1" cx="140.63" cy="175.96" r="3.13"/><circle class="cls-1" cx="146.88" cy="175.96" r="3.13"/><circle class="cls-1" cx="153.13" cy="175.96" r="3.13"/><circle class="cls-1" cx="159.38" cy="175.96" r="3.13"/><circle class="cls-1" cx="165.63" cy="175.96" r="3.13"/><circle class="cls-1" cx="171.88" cy="175.96" r="3.13"/><circle class="cls-1" cx="178.13" cy="175.96" r="3.13"/><circle class="cls-1" cx="184.38" cy="175.96" r="3.13"/><circle class="cls-1" cx="190.63" cy="175.96" r="3.13"/><circle class="cls-1" cx="196.88" cy="175.96" r="3.13"/><circle class="cls-1" cx="103.13" cy="182.21" r="3.13"/><circle class="cls-1" cx="109.38" cy="182.21" r="3.13"/><circle class="cls-1" cx="115.63" cy="182.21" r="3.13"/><circle class="cls-1" cx="121.88" cy="182.21" r="3.13"/><circle class="cls-1" cx="128.13" cy="182.21" r="3.13"/><circle class="cls-1" cx="134.38" cy="182.21" r="3.13"/><circle class="cls-1" cx="140.63" cy="182.21" r="3.13"/><circle class="cls-1" cx="146.88" cy="182.21" r="3.13"/><circle class="cls-1" cx="153.13" cy="182.21" r="3.13"/><circle class="cls-1" cx="159.38" cy="182.21" r="3.13"/><circle class="cls-1" cx="165.63" cy="182.21" r="3.13"/><circle class="cls-1" cx="171.88" cy="182.21" r="3.13"/><circle class="cls-1" cx="178.13" cy="182.21" r="3.13"/><circle class="cls-1" cx="184.38" cy="182.21" r="3.13"/><circle class="cls-1" cx="190.63" cy="182.21" r="3.13"/><circle class="cls-1" cx="196.88" cy="182.21" r="3.13"/><circle class="cls-1" cx="103.13" cy="188.46" r="3.13"/><circle class="cls-1" cx="109.38" cy="188.46" r="3.13"/><circle class="cls-1" cx="115.63" cy="188.46" r="3.13"/><circle class="cls-1" cx="121.88" cy="188.46" r="3.13"/><circle class="cls-1" cx="128.13" cy="188.46" r="3.13"/><circle class="cls-1" cx="134.38" cy="188.46" r="3.13"/><circle class="cls-1" cx="140.63" cy="188.46" r="3.13"/><circle class="cls-1" cx="146.88" cy="188.46" r="3.13"/><circle class="cls-1" cx="153.13" cy="188.46" r="3.13"/><circle class="cls-1" cx="159.38" cy="188.46" r="3.13"/><circle class="cls-1" cx="165.63" cy="188.46" r="3.13"/><circle class="cls-1" cx="171.88" cy="188.46" r="3.13"/><circle class="cls-1" cx="178.13" cy="188.46" r="3.13"/><circle class="cls-1" cx="184.38" cy="188.46" r="3.13"/><circle class="cls-1" cx="190.63" cy="188.46" r="3.13"/><circle class="cls-1" cx="196.88" cy="188.46" r="3.13"/><circle class="cls-1" cx="103.13" cy="194.71" r="3.13"/><circle class="cls-1" cx="109.38" cy="194.71" r="3.13"/><circle class="cls-1" cx="115.63" cy="194.71" r="3.13"/><circle class="cls-1" cx="121.88" cy="194.71" r="3.13"/><circle class="cls-1" cx="128.13" cy="194.71" r="3.13"/><circle class="cls-1" cx="134.38" cy="194.71" r="3.13"/><circle class="cls-1" cx="140.63" cy="194.71" r="3.13"/><circle class="cls-1" cx="146.88" cy="194.71" r="3.13"/><circle class="cls-1" cx="153.13" cy="194.71" r="3.13"/><circle class="cls-1" cx="159.38" cy="194.71" r="3.13"/><circle class="cls-1" cx="165.63" cy="194.71" r="3.13"/><circle class="cls-1" cx="171.88" cy="194.71" r="3.13"/><circle class="cls-1" cx="178.13" cy="194.71" r="3.13"/><circle class="cls-1" cx="184.38" cy="194.71" r="3.13"/><circle class="cls-1" cx="190.63" cy="194.71" r="3.13"/><circle class="cls-1" cx="196.88" cy="194.71" r="3.13"/><circle class="cls-1" cx="103.13" cy="200.96" r="3.13"/><circle class="cls-1" cx="109.38" cy="200.96" r="3.13"/><circle class="cls-1" cx="115.63" cy="200.96" r="3.13"/><circle class="cls-1" cx="121.88" cy="200.96" r="3.13"/><circle class="cls-1" cx="128.13" cy="200.96" r="3.13"/><circle class="cls-1" cx="134.38" cy="200.96" r="3.13"/><circle class="cls-1" cx="140.63" cy="200.96" r="3.13"/><circle class="cls-1" cx="146.88" cy="200.96" r="3.13"/><circle class="cls-1" cx="153.13" cy="200.96" r="3.13"/><circle class="cls-1" cx="159.38" cy="200.96" r="3.13"/><circle class="cls-1" cx="165.63" cy="200.96" r="3.13"/><circle class="cls-1" cx="171.88" cy="200.96" r="3.13"/><circle class="cls-1" cx="178.13" cy="200.96" r="3.13"/><circle class="cls-1" cx="184.38" cy="200.96" r="3.13"/><circle class="cls-1" cx="190.63" cy="200.96" r="3.13"/><circle class="cls-1" cx="196.88" cy="200.96" r="3.13"/><circle class="cls-1" cx="103.13" cy="207.21" r="3.13"/><circle class="cls-1" cx="109.38" cy="207.21" r="3.13"/><circle class="cls-1" cx="115.63" cy="207.21" r="3.13"/><circle class="cls-1" cx="121.88" cy="207.21" r="3.13"/><circle class="cls-1" cx="128.13" cy="207.21" r="3.13"/><circle class="cls-1" cx="134.38" cy="207.21" r="3.13"/><circle class="cls-1" cx="140.63" cy="207.21" r="3.13"/><circle class="cls-1" cx="146.88" cy="207.21" r="3.13"/><circle class="cls-1" cx="153.13" cy="207.21" r="3.13"/><circle class="cls-1" cx="159.38" cy="207.21" r="3.13"/><circle class="cls-1" cx="165.63" cy="207.21" r="3.13"/><circle class="cls-1" cx="171.88" cy="207.21" r="3.13"/><circle class="cls-1" cx="178.13" cy="207.21" r="3.13"/><circle class="cls-1" cx="184.38" cy="207.21" r="3.13"/><circle class="cls-1" cx="190.63" cy="207.21" r="3.13"/><circle class="cls-1" cx="196.88" cy="207.21" r="3.13"/><circle class="cls-1" cx="103.13" cy="213.46" r="3.13"/><circle class="cls-1" cx="109.38" cy="213.46" r="3.13"/><circle class="cls-1" cx="115.63" cy="213.46" r="3.13"/><circle class="cls-1" cx="121.88" cy="213.46" r="3.13"/><circle class="cls-1" cx="128.13" cy="213.46" r="3.13"/><circle class="cls-1" cx="134.38" cy="213.46" r="3.13"/><circle class="cls-1" cx="140.63" cy="213.46" r="3.13"/><circle class="cls-1" cx="146.88" cy="213.46" r="3.13"/><circle class="cls-1" cx="153.13" cy="213.46" r="3.13"/><circle class="cls-1" cx="159.38" cy="213.46" r="3.13"/><circle class="cls-1" cx="165.63" cy="213.46" r="3.13"/><circle class="cls-1" cx="171.88" cy="213.46" r="3.13"/><circle class="cls-1" cx="178.13" cy="213.46" r="3.13"/><circle class="cls-1" cx="184.38" cy="213.46" r="3.13"/><circle class="cls-1" cx="190.63" cy="213.46" r="3.13"/><circle class="cls-1" cx="196.88" cy="213.46" r="3.13"/><circle class="cls-1" cx="103.13" cy="219.71" r="3.13"/><circle class="cls-1" cx="109.38" cy="219.71" r="3.13"/><circle class="cls-1" cx="115.63" cy="219.71" r="3.13"/><circle class="cls-1" cx="121.88" cy="219.71" r="3.13"/><circle class="cls-1" cx="128.13" cy="219.71" r="3.13"/><circle class="cls-1" cx="134.38" cy="219.71" r="3.13"/><circle class="cls-1" cx="140.63" cy="219.71" r="3.13"/><circle class="cls-1" cx="146.88" cy="219.71" r="3.13"/><circle class="cls-1" cx="153.13" cy="219.71" r="3.13"/><circle class="cls-1" cx="159.38" cy="219.71" r="3.13"/><circle class="cls-1" cx="165.63" cy="219.71" r="3.13"/><circle class="cls-1" cx="171.88" cy="219.71" r="3.13"/><circle class="cls-1" cx="178.13" cy="219.71" r="3.13"/><circle class="cls-1" cx="184.38" cy="219.71" r="3.13"/><circle class="cls-1" cx="190.63" cy="219.71" r="3.13"/><circle class="cls-1" cx="196.88" cy="219.71" r="3.13"/></g><circle id="SVGID-3" data-name="SVGID" class="cls-1" cx="150" cy="185.34" r="37.5"/><g class="cls-5"><circle class="cls-1" cx="103.13" cy="184.63" r="3.13"/><circle class="cls-1" cx="109.38" cy="184.63" r="3.13"/><circle class="cls-1" cx="115.63" cy="184.63" r="3.13"/><circle class="cls-1" cx="121.88" cy="184.63" r="3.13"/><circle class="cls-1" cx="128.13" cy="184.63" r="3.13"/><circle class="cls-1" cx="134.38" cy="184.63" r="3.13"/><circle class="cls-1" cx="140.63" cy="184.63" r="3.13"/><circle class="cls-1" cx="146.88" cy="184.63" r="3.13"/><circle class="cls-1" cx="153.13" cy="184.63" r="3.13"/><circle class="cls-1" cx="159.38" cy="184.63" r="3.13"/><circle class="cls-1" cx="165.63" cy="184.63" r="3.13"/><circle class="cls-1" cx="171.88" cy="184.63" r="3.13"/><circle class="cls-1" cx="178.13" cy="184.63" r="3.13"/><circle class="cls-1" cx="184.38" cy="184.63" r="3.13"/><circle class="cls-1" cx="190.63" cy="184.63" r="3.13"/><circle class="cls-1" cx="196.88" cy="184.63" r="3.13"/><circle class="cls-1" cx="103.13" cy="190.88" r="3.13"/><circle class="cls-1" cx="109.38" cy="190.88" r="3.13"/><circle class="cls-1" cx="115.63" cy="190.88" r="3.13"/><circle class="cls-1" cx="121.88" cy="190.88" r="3.13"/><circle class="cls-1" cx="128.13" cy="190.88" r="3.13"/><circle class="cls-1" cx="134.38" cy="190.88" r="3.13"/><circle class="cls-1" cx="140.63" cy="190.88" r="3.13"/><circle class="cls-1" cx="146.88" cy="190.88" r="3.13"/><circle class="cls-1" cx="153.13" cy="190.88" r="3.13"/><circle class="cls-1" cx="159.38" cy="190.88" r="3.13"/><circle class="cls-1" cx="165.63" cy="190.88" r="3.13"/><circle class="cls-1" cx="171.88" cy="190.88" r="3.13"/><circle class="cls-1" cx="178.13" cy="190.88" r="3.13"/><circle class="cls-1" cx="184.38" cy="190.88" r="3.13"/><circle class="cls-1" cx="190.63" cy="190.88" r="3.13"/><circle class="cls-1" cx="196.88" cy="190.88" r="3.13"/><circle class="cls-1" cx="103.13" cy="197.13" r="3.13"/><circle class="cls-1" cx="109.38" cy="197.13" r="3.13"/><circle class="cls-1" cx="115.63" cy="197.13" r="3.13"/><circle class="cls-1" cx="121.88" cy="197.13" r="3.13"/><circle class="cls-1" cx="128.13" cy="197.13" r="3.13"/><circle class="cls-1" cx="134.38" cy="197.13" r="3.13"/><circle class="cls-1" cx="140.63" cy="197.13" r="3.13"/><circle class="cls-1" cx="146.88" cy="197.13" r="3.13"/><circle class="cls-1" cx="153.13" cy="197.13" r="3.13"/><circle class="cls-1" cx="159.38" cy="197.13" r="3.13"/><circle class="cls-1" cx="165.63" cy="197.13" r="3.13"/><circle class="cls-1" cx="171.88" cy="197.13" r="3.13"/><circle class="cls-1" cx="178.13" cy="197.13" r="3.13"/><circle class="cls-1" cx="184.38" cy="197.13" r="3.13"/><circle class="cls-1" cx="190.63" cy="197.13" r="3.13"/><circle class="cls-1" cx="196.88" cy="197.13" r="3.13"/><circle class="cls-1" cx="103.13" cy="203.38" r="3.13"/><circle class="cls-1" cx="109.38" cy="203.38" r="3.13"/><circle class="cls-1" cx="115.63" cy="203.38" r="3.13"/><circle class="cls-1" cx="121.88" cy="203.38" r="3.13"/><circle class="cls-1" cx="128.13" cy="203.38" r="3.13"/><circle class="cls-1" cx="134.38" cy="203.38" r="3.13"/><circle class="cls-1" cx="140.63" cy="203.38" r="3.13"/><circle class="cls-1" cx="146.88" cy="203.38" r="3.13"/><circle class="cls-1" cx="153.13" cy="203.38" r="3.13"/><circle class="cls-1" cx="159.38" cy="203.38" r="3.13"/><circle class="cls-1" cx="165.63" cy="203.38" r="3.13"/><circle class="cls-1" cx="171.88" cy="203.38" r="3.13"/><circle class="cls-1" cx="178.13" cy="203.38" r="3.13"/><circle class="cls-1" cx="184.38" cy="203.38" r="3.13"/><circle class="cls-1" cx="190.63" cy="203.38" r="3.13"/><circle class="cls-1" cx="196.88" cy="203.38" r="3.13"/><circle class="cls-1" cx="103.13" cy="209.63" r="3.13"/><circle class="cls-1" cx="109.38" cy="209.63" r="3.13"/><circle class="cls-1" cx="115.63" cy="209.63" r="3.13"/><circle class="cls-1" cx="121.88" cy="209.63" r="3.13"/><circle class="cls-1" cx="128.13" cy="209.63" r="3.13"/><circle class="cls-1" cx="134.38" cy="209.63" r="3.13"/><circle class="cls-1" cx="140.63" cy="209.63" r="3.13"/><circle class="cls-1" cx="146.88" cy="209.63" r="3.13"/><circle class="cls-1" cx="153.13" cy="209.63" r="3.13"/><circle class="cls-1" cx="159.38" cy="209.63" r="3.13"/><circle class="cls-1" cx="165.63" cy="209.63" r="3.13"/><circle class="cls-1" cx="171.88" cy="209.63" r="3.13"/><circle class="cls-1" cx="178.13" cy="209.63" r="3.13"/><circle class="cls-1" cx="184.38" cy="209.63" r="3.13"/><circle class="cls-1" cx="190.63" cy="209.63" r="3.13"/><circle class="cls-1" cx="196.88" cy="209.63" r="3.13"/><circle class="cls-1" cx="103.13" cy="215.88" r="3.13"/><circle class="cls-1" cx="109.38" cy="215.88" r="3.13"/><circle class="cls-1" cx="115.63" cy="215.88" r="3.13"/><circle class="cls-1" cx="121.88" cy="215.88" r="3.13"/><circle class="cls-1" cx="128.13" cy="215.88" r="3.13"/><circle class="cls-1" cx="134.38" cy="215.88" r="3.13"/><circle class="cls-1" cx="140.63" cy="215.88" r="3.13"/><circle class="cls-1" cx="146.88" cy="215.88" r="3.13"/><circle class="cls-1" cx="153.13" cy="215.88" r="3.13"/><circle class="cls-1" cx="159.38" cy="215.88" r="3.13"/><circle class="cls-1" cx="165.63" cy="215.88" r="3.13"/><circle class="cls-1" cx="171.88" cy="215.88" r="3.13"/><circle class="cls-1" cx="178.13" cy="215.88" r="3.13"/><circle class="cls-1" cx="184.38" cy="215.88" r="3.13"/><circle class="cls-1" cx="190.63" cy="215.88" r="3.13"/><circle class="cls-1" cx="196.88" cy="215.88" r="3.13"/><circle class="cls-1" cx="103.13" cy="222.13" r="3.13"/><circle class="cls-1" cx="109.38" cy="222.13" r="3.13"/><circle class="cls-1" cx="115.63" cy="222.13" r="3.13"/><circle class="cls-1" cx="121.88" cy="222.13" r="3.13"/><circle class="cls-1" cx="128.13" cy="222.13" r="3.13"/><circle class="cls-1" cx="134.38" cy="222.13" r="3.13"/><circle class="cls-1" cx="140.63" cy="222.13" r="3.13"/><circle class="cls-1" cx="146.88" cy="222.13" r="3.13"/><circle class="cls-1" cx="153.13" cy="222.13" r="3.13"/><circle class="cls-1" cx="159.38" cy="222.13" r="3.13"/><circle class="cls-1" cx="165.63" cy="222.13" r="3.13"/><circle class="cls-1" cx="171.88" cy="222.13" r="3.13"/><circle class="cls-1" cx="178.13" cy="222.13" r="3.13"/><circle class="cls-1" cx="184.38" cy="222.13" r="3.13"/><circle class="cls-1" cx="190.63" cy="222.13" r="3.13"/><circle class="cls-1" cx="196.88" cy="222.13" r="3.13"/><circle class="cls-1" cx="103.13" cy="228.38" r="3.13"/><circle class="cls-1" cx="109.38" cy="228.38" r="3.13"/><circle class="cls-1" cx="115.63" cy="228.38" r="3.13"/><circle class="cls-1" cx="121.88" cy="228.38" r="3.13"/><circle class="cls-1" cx="128.13" cy="228.38" r="3.13"/><circle class="cls-1" cx="134.38" cy="228.38" r="3.13"/><circle class="cls-1" cx="140.63" cy="228.38" r="3.13"/><circle class="cls-1" cx="146.88" cy="228.38" r="3.13"/><circle class="cls-1" cx="153.13" cy="228.38" r="3.13"/><circle class="cls-1" cx="159.38" cy="228.38" r="3.13"/><circle class="cls-1" cx="165.63" cy="228.38" r="3.13"/><circle class="cls-1" cx="171.88" cy="228.38" r="3.13"/><circle class="cls-1" cx="178.13" cy="228.38" r="3.13"/><circle class="cls-1" cx="184.38" cy="228.38" r="3.13"/><circle class="cls-1" cx="190.63" cy="228.38" r="3.13"/><circle class="cls-1" cx="196.88" cy="228.38" r="3.13"/><circle class="cls-1" cx="103.13" cy="234.63" r="3.13"/><circle class="cls-1" cx="109.38" cy="234.63" r="3.13"/><circle class="cls-1" cx="115.63" cy="234.63" r="3.13"/><circle class="cls-1" cx="121.88" cy="234.63" r="3.13"/><circle class="cls-1" cx="128.13" cy="234.63" r="3.13"/><circle class="cls-1" cx="134.38" cy="234.63" r="3.13"/><circle class="cls-1" cx="140.63" cy="234.63" r="3.13"/><circle class="cls-1" cx="146.88" cy="234.63" r="3.13"/><circle class="cls-1" cx="153.13" cy="234.63" r="3.13"/><circle class="cls-1" cx="159.38" cy="234.63" r="3.13"/><circle class="cls-1" cx="165.63" cy="234.63" r="3.13"/><circle class="cls-1" cx="171.88" cy="234.63" r="3.13"/><circle class="cls-1" cx="178.13" cy="234.63" r="3.13"/><circle class="cls-1" cx="184.38" cy="234.63" r="3.13"/><circle class="cls-1" cx="190.63" cy="234.63" r="3.13"/><circle class="cls-1" cx="196.88" cy="234.63" r="3.13"/><circle class="cls-1" cx="103.13" cy="240.88" r="3.13"/><circle class="cls-1" cx="109.38" cy="240.88" r="3.13"/><circle class="cls-1" cx="115.63" cy="240.88" r="3.13"/><circle class="cls-1" cx="121.88" cy="240.88" r="3.13"/><circle class="cls-1" cx="128.13" cy="240.88" r="3.13"/><circle class="cls-1" cx="134.38" cy="240.88" r="3.13"/><circle class="cls-1" cx="140.63" cy="240.88" r="3.13"/><circle class="cls-1" cx="146.88" cy="240.88" r="3.13"/><circle class="cls-1" cx="153.13" cy="240.88" r="3.13"/><circle class="cls-1" cx="159.38" cy="240.88" r="3.13"/><circle class="cls-1" cx="165.63" cy="240.88" r="3.13"/><circle class="cls-1" cx="171.88" cy="240.88" r="3.13"/><circle class="cls-1" cx="178.13" cy="240.88" r="3.13"/><circle class="cls-1" cx="184.38" cy="240.88" r="3.13"/><circle class="cls-1" cx="190.63" cy="240.88" r="3.13"/><circle class="cls-1" cx="196.88" cy="240.88" r="3.13"/><circle class="cls-1" cx="103.13" cy="247.13" r="3.13"/><circle class="cls-1" cx="109.38" cy="247.13" r="3.13"/><circle class="cls-1" cx="115.63" cy="247.13" r="3.13"/><circle class="cls-1" cx="121.88" cy="247.13" r="3.13"/><circle class="cls-1" cx="128.13" cy="247.13" r="3.13"/><circle class="cls-1" cx="134.38" cy="247.13" r="3.13"/><circle class="cls-1" cx="140.63" cy="247.13" r="3.13"/><circle class="cls-1" cx="146.88" cy="247.13" r="3.13"/><circle class="cls-1" cx="153.13" cy="247.13" r="3.13"/><circle class="cls-1" cx="159.38" cy="247.13" r="3.13"/><circle class="cls-1" cx="165.63" cy="247.13" r="3.13"/><circle class="cls-1" cx="171.88" cy="247.13" r="3.13"/><circle class="cls-1" cx="178.13" cy="247.13" r="3.13"/><circle class="cls-1" cx="184.38" cy="247.13" r="3.13"/><circle class="cls-1" cx="190.63" cy="247.13" r="3.13"/><circle class="cls-1" cx="196.88" cy="247.13" r="3.13"/><circle class="cls-1" cx="103.13" cy="253.38" r="3.13"/><circle class="cls-1" cx="109.38" cy="253.38" r="3.13"/><circle class="cls-1" cx="115.63" cy="253.38" r="3.13"/><circle class="cls-1" cx="121.88" cy="253.38" r="3.13"/><circle class="cls-1" cx="128.13" cy="253.38" r="3.13"/><circle class="cls-1" cx="134.38" cy="253.38" r="3.13"/><circle class="cls-1" cx="140.63" cy="253.38" r="3.13"/><circle class="cls-1" cx="146.88" cy="253.38" r="3.13"/><circle class="cls-1" cx="153.13" cy="253.38" r="3.13"/><circle class="cls-1" cx="159.38" cy="253.38" r="3.13"/><circle class="cls-1" cx="165.63" cy="253.38" r="3.13"/><circle class="cls-1" cx="171.88" cy="253.38" r="3.13"/><circle class="cls-1" cx="178.13" cy="253.38" r="3.13"/><circle class="cls-1" cx="184.38" cy="253.38" r="3.13"/><circle class="cls-1" cx="190.63" cy="253.38" r="3.13"/><circle class="cls-1" cx="196.88" cy="253.38" r="3.13"/><circle class="cls-1" cx="103.13" cy="259.63" r="3.13"/><circle class="cls-1" cx="109.38" cy="259.63" r="3.13"/><circle class="cls-1" cx="115.63" cy="259.63" r="3.13"/><circle class="cls-1" cx="121.88" cy="259.63" r="3.13"/><circle class="cls-1" cx="128.13" cy="259.63" r="3.13"/><circle class="cls-1" cx="134.38" cy="259.63" r="3.13"/><circle class="cls-1" cx="140.63" cy="259.63" r="3.13"/><circle class="cls-1" cx="146.88" cy="259.63" r="3.13"/><circle class="cls-1" cx="153.13" cy="259.63" r="3.13"/><circle class="cls-1" cx="159.38" cy="259.63" r="3.13"/><circle class="cls-1" cx="165.63" cy="259.63" r="3.13"/><circle class="cls-1" cx="171.88" cy="259.63" r="3.13"/><circle class="cls-1" cx="178.13" cy="259.63" r="3.13"/><circle class="cls-1" cx="184.38" cy="259.63" r="3.13"/><circle class="cls-1" cx="190.63" cy="259.63" r="3.13"/><circle class="cls-1" cx="196.88" cy="259.63" r="3.13"/><circle class="cls-1" cx="103.13" cy="265.88" r="3.13"/><circle class="cls-1" cx="109.38" cy="265.88" r="3.13"/><circle class="cls-1" cx="115.63" cy="265.88" r="3.13"/><circle class="cls-1" cx="121.88" cy="265.88" r="3.13"/><circle class="cls-1" cx="128.13" cy="265.88" r="3.13"/><circle class="cls-1" cx="134.38" cy="265.88" r="3.13"/><circle class="cls-1" cx="140.63" cy="265.88" r="3.13"/><circle class="cls-1" cx="146.88" cy="265.88" r="3.13"/><circle class="cls-1" cx="153.13" cy="265.88" r="3.13"/><circle class="cls-1" cx="159.38" cy="265.88" r="3.13"/><circle class="cls-1" cx="165.63" cy="265.88" r="3.13"/><circle class="cls-1" cx="171.88" cy="265.88" r="3.13"/><circle class="cls-1" cx="178.13" cy="265.88" r="3.13"/><circle class="cls-1" cx="184.38" cy="265.88" r="3.13"/><circle class="cls-1" cx="190.63" cy="265.88" r="3.13"/><circle class="cls-1" cx="196.88" cy="265.88" r="3.13"/><circle class="cls-1" cx="103.13" cy="272.13" r="3.13"/><circle class="cls-1" cx="109.38" cy="272.13" r="3.13"/><circle class="cls-1" cx="115.63" cy="272.13" r="3.13"/><circle class="cls-1" cx="121.88" cy="272.13" r="3.13"/><circle class="cls-1" cx="128.13" cy="272.13" r="3.13"/><circle class="cls-1" cx="134.38" cy="272.13" r="3.13"/><circle class="cls-1" cx="140.63" cy="272.13" r="3.13"/><circle class="cls-1" cx="146.88" cy="272.13" r="3.13"/><circle class="cls-1" cx="153.13" cy="272.13" r="3.13"/><circle class="cls-1" cx="159.38" cy="272.13" r="3.13"/><circle class="cls-1" cx="165.63" cy="272.13" r="3.13"/><circle class="cls-1" cx="171.88" cy="272.13" r="3.13"/><circle class="cls-1" cx="178.13" cy="272.13" r="3.13"/><circle class="cls-1" cx="184.38" cy="272.13" r="3.13"/><circle class="cls-1" cx="190.63" cy="272.13" r="3.13"/><circle class="cls-1" cx="196.88" cy="272.13" r="3.13"/><circle class="cls-1" cx="103.13" cy="278.38" r="3.13"/><circle class="cls-1" cx="109.38" cy="278.38" r="3.13"/><circle class="cls-1" cx="115.63" cy="278.38" r="3.13"/><circle class="cls-1" cx="121.88" cy="278.38" r="3.13"/><circle class="cls-1" cx="128.13" cy="278.38" r="3.13"/><circle class="cls-1" cx="134.38" cy="278.38" r="3.13"/><circle class="cls-1" cx="140.63" cy="278.38" r="3.13"/><circle class="cls-1" cx="146.88" cy="278.38" r="3.13"/><circle class="cls-1" cx="153.13" cy="278.38" r="3.13"/><circle class="cls-1" cx="159.38" cy="278.38" r="3.13"/><circle class="cls-1" cx="165.63" cy="278.38" r="3.13"/><circle class="cls-1" cx="171.88" cy="278.38" r="3.13"/><circle class="cls-1" cx="178.13" cy="278.38" r="3.13"/><circle class="cls-1" cx="184.38" cy="278.38" r="3.13"/><circle class="cls-1" cx="190.63" cy="278.38" r="3.13"/><circle class="cls-1" cx="196.88" cy="278.38" r="3.13"/></g><circle id="SVGID-4" data-name="SVGID" class="cls-1" cx="150" cy="258.07" r="23.44"/><line class="cls-6" x1="36" y1="33.25" x2="36" y2="274.08"/><polygon points="27.82 267.46 29.29 266.09 36 273.32 42.71 266.09 44.18 267.46 36 276.25 27.82 267.46"/><line class="cls-6" x1="265" y1="276.25" x2="265" y2="35.42"/><polygon points="273.18 42.05 271.71 43.41 265 36.19 258.29 43.41 256.82 42.05 265 33.25 273.18 42.05"/><text class="cls-7" transform="translate(141.23 13.73)">T</text><text class="cls-7" transform="translate(151 19.06) scale(0.58)">m</text><text class="cls-7" transform="translate(29.3 164.83) rotate(-90)">Δ<tspan class="cls-8" x="10.69" y="0">T</tspan></text><text class="cls-7" transform="translate(286.4 160.53) rotate(-90)">r*</text></g></g></svg>