<svg xmlns="http://www.w3.org/2000/svg" width="417.9353" height="415.8262" viewBox="0 0 417.9353 415.8262"><defs><style>.a,.b,.c,.d,.e{fill:none;stroke:#000;stroke-miterlimit:10;}.b{stroke-dasharray:3.9899 3.9899;}.c{stroke-dasharray:3.9524 3.9524;}.d{stroke-dasharray:3.9929 3.9929;}.e{stroke-dasharray:3.9405 3.9405;}.f,.g,.i{font-size:12px;font-family:ArialMT, Arial;}.g{letter-spacing:0.0001em;}.h{letter-spacing:-0.1108em;}.i{letter-spacing:-0.0181em;}</style></defs><title>Asset 6</title><line x1="16.1943" y1="0.1319" x2="16.1943" y2="399.1319"/><line class="a" x1="16.1943" y1="1.2164" x2="16.1943" y2="399.1319"/><polygon points="12.104 4.53 12.837 5.212 16.193 1.6 19.551 5.212 20.283 4.53 16.193 0.132 12.104 4.53"/><line class="a" x1="416.6099" y1="399.6319" x2="16.6943" y2="399.6319"/><polygon points="413.296 395.542 412.614 396.274 416.226 399.631 412.614 402.988 413.296 403.721 417.694 399.631 413.296 395.542"/><line x1="255.2108" x2="255.2108" y2="399"/><line class="a" x1="255.2108" x2="255.2108" y2="2"/><line class="b" x1="255.2108" y1="5.9899" x2="255.2108" y2="395.0051"/><line class="a" x1="255.2108" y1="397" x2="255.2108" y2="399"/><line x1="110.1943" y1="146.1319" x2="110.1943" y2="399.1319"/><line class="a" x1="110.1943" y1="146.1319" x2="110.1943" y2="148.1319"/><line class="c" x1="110.1943" y1="152.0843" x2="110.1943" y2="395.1557"/><line class="a" x1="110.1943" y1="397.1319" x2="110.1943" y2="399.1319"/><path class="a" d="M255.29,194.4418q.9011.43,1.8024.8648"/><path class="d" d="M260.6816,197.0525C315.55,223.9864,371.2115,262.5984,415.07,317.854"/><path class="a" d="M416.3094,319.4236q.6171.786,1.2311,1.5764"/><path class="a" d="M41.7163,135.8571s104.3929,6.44,213.5736,58.5847"/><path class="a" d="M255.29,194.4416a520.2077,520.2077,0,0,1,70.1624,72.67,502.3338,502.3338,0,0,1,60.44,97.405"/><path class="a" d="M70.991,90.7582s.6577.1785,1.9173.5527"/><path class="e" d="M76.6711,92.47a446.3863,446.3863,0,0,1,51.9238,20.6291,562.0406,562.0406,0,0,1,123.6591,78.769"/><path class="a" d="M253.7662,193.1452q.762.6458,1.5238,1.2964"/><line class="a" x1="110.1943" y1="145.0474" x2="110.1943" y2="106.2164"/><polygon points="114.284 141.734 113.552 141.052 110.195 144.664 106.838 141.052 106.105 141.734 110.195 146.132 114.284 141.734"/><polygon points="114.284 109.53 113.552 110.212 110.195 106.6 106.838 110.212 106.105 109.53 110.195 105.132 114.284 109.53"/><line class="a" x1="111.7788" y1="339.6319" x2="254.1263" y2="339.6319"/><polygon points="115.092 343.722 115.774 342.989 112.163 339.633 115.774 336.275 115.092 335.543 110.694 339.633 115.092 343.722"/><polygon points="250.813 343.722 250.131 342.989 253.742 339.633 250.131 336.275 250.813 335.543 255.211 339.633 250.813 343.722"/><line class="a" x1="42.7788" y1="39.6319" x2="254.1263" y2="39.6319"/><polygon points="46.092 43.722 46.774 42.989 43.163 39.633 46.774 36.275 46.092 35.543 41.694 39.633 46.092 43.722"/><polygon points="250.813 43.722 250.131 42.989 253.742 39.633 250.131 36.275 250.813 35.543 255.211 39.633 250.813 43.722"/><line class="a" x1="256.2953" y1="39.6319" x2="384.6099" y2="39.6319"/><polygon points="259.609 43.722 260.291 42.989 256.679 39.633 260.291 36.275 259.609 35.543 255.211 39.633 259.609 43.722"/><polygon points="381.296 43.722 380.614 42.989 384.226 39.633 380.614 36.275 381.296 35.543 385.694 39.633 381.296 43.722"/><text class="f" transform="translate(359.7119 241.2571)">Solid (G</text><text class="f" transform="translate(403.0596 245.2532) scale(0.583)">S</text><text class="f" transform="translate(407.7256 241.2571)">)</text><text class="f" transform="translate(304.7935 337.7851)">Liquid (G</text><text class="f" transform="translate(353.4849 341.7812) scale(0.583)">L</text><text class="f" transform="translate(357.3755 337.7851)">)</text><line x1="413.6943" y1="247.1538" x2="345.4965" y2="247.1538"/><line class="a" x1="413.6943" y1="247.1538" x2="346.5811" y2="247.1538"/><polygon points="349.895 243.064 350.577 243.796 346.965 247.153 350.577 250.51 349.895 251.243 345.497 247.153 349.895 243.064"/><line x1="304.7932" y1="343.6813" x2="372.991" y2="343.6813"/><line class="a" x1="304.7932" y1="343.6813" x2="371.9066" y2="343.6813"/><polygon points="368.593 347.771 367.911 347.039 371.523 343.682 367.911 340.325 368.593 339.592 372.991 343.682 368.593 347.771"/><text class="f" transform="translate(134.2612 333.7354)">Undercooling (ΔT)</text><text class="f" transform="translate(100.7543 33.7354)">Solid State Stable</text><text class="f" transform="translate(270.0825 33.7354)">Liquid State Stable</text><line x1="284.6174" y1="180.956" x2="256.7273" y2="193.8791"/><line class="a" x1="284.6174" y1="180.9561" x2="257.7113" y2="193.4232"/><polygon points="258.998 188.319 259.925 188.697 258.059 193.261 262.748 194.789 262.437 195.74 256.727 193.878 258.998 188.319"/><text class="f" transform="translate(270.6724 177.5277)">ΔG</text><text class="f" transform="translate(288.022 181.5238) scale(0.583)">V</text><text class="f" transform="translate(292.688 177.5277)"><tspan xml:space="preserve"> = G</tspan></text><text class="g" transform="translate(315.6977 181.5238) scale(0.583)">S</text><text class="f" transform="translate(320.3647 177.5277)"><tspan xml:space="preserve"> - G</tspan></text><text class="f" transform="translate(340.3628 181.5238) scale(0.583)">S</text><text class="f" transform="translate(345.0288 177.5277)"><tspan xml:space="preserve"> = 0</tspan></text><line x1="151.4546" y1="111.2012" x2="113.3976" y2="128.8352"/><line class="a" x1="151.4546" y1="111.2012" x2="114.3816" y2="128.3792"/><polygon points="115.669 123.275 116.595 123.653 114.729 128.217 119.418 129.745 119.107 130.696 113.397 128.834 115.669 123.275"/><text class="f" transform="translate(132.426 105.1318)">ΔG</text><text class="f" transform="translate(149.7756 109.1279) scale(0.583)">V</text><text class="f" transform="translate(154.4416 105.1318)"><tspan xml:space="preserve"> = G</tspan></text><text class="g" transform="translate(177.4514 109.1279) scale(0.583)">S</text><text class="f" transform="translate(182.1184 105.1318)"><tspan xml:space="preserve"> - G</tspan></text><text class="f" transform="translate(202.1164 109.1279) scale(0.583)">L</text><text class="f" transform="translate(206.007 105.1318)"><tspan xml:space="preserve"> = -ve</tspan></text><text class="f" transform="translate(166.5164 411.9297)"><tspan class="h">T</tspan><tspan x="6" y="0">emperature (T) →</tspan></text><text class="f" transform="translate(10.2979 250.6441) rotate(-90)">Free Energy (G) →</text><text class="i" transform="translate(114.1943 395.2354)">T</text><text class="f" transform="translate(257.2106 393.2373)">T</text><text class="f" transform="translate(264.5407 397.2334) scale(0.583)">m</text></svg>