<svg xmlns="http://www.w3.org/2000/svg" width="530.9608" height="502" viewBox="0 0 530.9608 502"><defs><style>.a,.b,.f{fill:none;stroke:#000;stroke-miterlimit:10;}.a,.b{stroke-width:2px;}.b{stroke-dasharray:4 4;}.c{font-size:13.7912px;font-family:ArialMT, Arial;}.d{letter-spacing:-0.0371em;}.e{letter-spacing:-0.1108em;}</style></defs><title>Asset 2</title><line class="a" x1="27.5817" y1="474.4176" x2="529.334" y2="474.4176"/><polygon points="524.364 480.552 523.341 479.454 528.758 474.419 523.341 469.383 524.364 468.284 530.961 474.419 524.364 480.552"/><line class="a" x1="27.5817" y1="1.6267" x2="27.5817" y2="474.4176"/><polygon points="21.447 6.597 22.546 7.62 27.58 2.202 32.616 7.62 33.715 6.597 27.58 0 21.447 6.597"/><polyline class="a" points="103.433 65.508 178.366 258.585 350.641 258.585 500.62 408.909"/><line class="b" x1="350.6407" y1="258.5852" x2="350.9855" y2="473.728"/><line class="b" x1="178.3655" y1="258.5852" x2="28.2712" y2="258.5852"/><line class="b" x1="178.3655" y1="258.5852" x2="178.9402" y2="473.728"/><text class="c" transform="translate(255.3931 497.5215)"><tspan class="d">T</tspan><tspan x="7.9126" y="0">ime →</tspan></text><text class="c" transform="translate(11.835 284.7305) rotate(-90)"><tspan class="e">T</tspan><tspan x="6.8955" y="0">emperature →</tspan></text><text class="c" transform="translate(96.4336 254.1074)">A1</text><text class="c" transform="translate(226.2588 456.1494)">γ + α + Fe3C</text><text class="c" transform="translate(405.6055 456.1475)">α + Fe3C</text><text class="c" transform="translate(99.8711 456.1475)">γ</text><text class="c" transform="translate(54.063 428.5664)">F = 2 - 1 + 1 = 2</text><text class="c" transform="translate(215.4775 428.5664)">F = 2 - 3 + 1 = 0</text><text class="c" transform="translate(383.5176 428.5664)">F = 2 - 2 + 1 = 1</text><line class="f" x1="185.976" y1="247.9613" x2="200.6613" y2="218.5907"/><polygon points="191.116 246.827 190.766 245.889 186.149 247.618 184.761 242.886 183.801 243.169 185.492 248.932 191.116 246.827"/><line class="f" x1="352.8496" y1="250.7196" x2="367.535" y2="221.3489"/><polygon points="357.99 249.585 357.639 248.647 353.022 250.377 351.634 245.645 350.674 245.927 352.365 251.69 357.99 249.585"/><text class="c" transform="translate(168.6885 201.4644)">Pearlite formation<tspan x="37.1816" y="16.5493">starts</tspan></text><text class="c" transform="translate(330.0449 201.4644)">Pearlite formation<tspan x="39.0869" y="16.5493">ends</tspan></text></svg>