<svg xmlns="http://www.w3.org/2000/svg" viewBox="0 0 385 364"><defs><style>.cls-1,.cls-2,.cls-6{fill:none;stroke:#000;stroke-miterlimit:10;}.cls-1,.cls-2{stroke-width:2px;}.cls-2{stroke-dasharray:4 4;}.cls-3{font-size:10px;font-family:ArialMT, Arial;}.cls-4{letter-spacing:-0.04em;}.cls-5{letter-spacing:-0.11em;}</style></defs><title>eutectoid_reaction_cooling_curve</title><g id="Layer_2" data-name="Layer 2"><g id="Layer_1-2" data-name="Layer 1"><polyline class="cls-1" points="20 0 20 344 385 344"/><polyline class="cls-1" points="75 47.5 129.33 187.5 254.25 187.5 363 296.5"/><line class="cls-2" x1="254.25" y1="187.5" x2="254.5" y2="343.5"/><line class="cls-2" x1="129.33" y1="187.5" x2="20.5" y2="187.5"/><line class="cls-2" x1="129.33" y1="187.5" x2="129.75" y2="343.5"/><text class="cls-3" transform="translate(185.19 360.75)"><tspan class="cls-4">T</tspan><tspan x="5.74" y="0">ime →</tspan></text><text class="cls-3" transform="translate(8.58 206.46) rotate(-90)"><tspan class="cls-5">T</tspan><tspan x="5" y="0">emperature →</tspan></text><text class="cls-3" transform="translate(69.92 184.25)">A1</text><text class="cls-3" transform="translate(164.06 330.75)">γ + α + Fe3C</text><text class="cls-3" transform="translate(294.1 330.75)">α + Fe3C</text><text class="cls-3" transform="translate(72.42 330.75)">γ</text><text class="cls-3" transform="translate(39.2 310.75)">F = 2 - 1 + 1 = 2</text><text class="cls-3" transform="translate(156.24 310.75)">F = 2 - 3 + 1 = 0</text><text class="cls-3" transform="translate(278.09 310.75)">F = 2 - 2 + 1 = 1</text><line class="cls-6" x1="134.99" y1="179.53" x2="145.5" y2="158.5"/><polygon points="140.13 178.4 139.78 177.46 135.16 179.19 133.77 174.46 132.81 174.74 134.5 180.5 140.13 178.4"/><line class="cls-6" x1="255.98" y1="181.53" x2="266.5" y2="160.5"/><polygon points="261.13 180.4 260.77 179.46 256.16 181.19 254.77 176.46 253.81 176.74 255.5 182.5 261.13 180.4"/><text class="cls-3" transform="translate(122.32 146.08)">Pearlite formation<tspan x="26.96" y="12">starts</tspan></text><text class="cls-3" transform="translate(239.32 146.08)">Pearlite formation<tspan x="28.34" y="12">ends</tspan></text></g></g></svg>