<svg xmlns="http://www.w3.org/2000/svg" viewBox="0 0 504.43 209.92"><defs><style>.cls-1,.cls-11,.cls-4,.cls-5,.cls-6,.cls-7,.cls-8,.cls-9{fill:none;stroke:#000;stroke-miterlimit:10;}.cls-2{font-size:10px;}.cls-10,.cls-2{font-family:ArialMT, Arial;}.cls-3{letter-spacing:-0.02em;}.cls-4{stroke-dasharray:1.86 1.86;}.cls-5{stroke-dasharray:2.01 2.01;}.cls-6{stroke-dasharray:2.02 2.02;}.cls-7{stroke-dasharray:2.01 2.01;}.cls-8{stroke-dasharray:2 2;}.cls-9{stroke-dasharray:1.99 1.99;}.cls-10{font-size:8px;}.cls-11{stroke-width:0.5px;}</style></defs><title>hypoeutectoid_composition_variation</title><g id="Layer_2" data-name="Layer 2"><g id="Layer_1-2" data-name="Layer 1"><line class="cls-1" x1="100" y1="166.92" x2="45" y2="10.92"/><line class="cls-1" x1="400" y1="166.92" x2="45" y2="10.92"/><text class="cls-2" transform="translate(40.42 8.58)">G</text><text class="cls-2" transform="translate(398.18 179.76)">S<tspan x="-16.39" y="12">(0.8% C)</tspan></text><text class="cls-2" transform="translate(98.41 179.76)"><tspan class="cls-3">P</tspan><tspan x="-22.04" y="12">(0.025% C)</tspan></text><line x1="45.5" y1="10.92" x2="30.5" y2="10.92"/><line class="cls-1" x1="45.5" y1="10.92" x2="44.5" y2="10.92"/><line class="cls-4" x1="42.64" y1="10.92" x2="32.43" y2="10.92"/><line class="cls-1" x1="31.5" y1="10.92" x2="30.5" y2="10.92"/><line x1="400" y1="166.92" x2="30.5" y2="166.92"/><line class="cls-1" x1="400" y1="166.92" x2="399" y2="166.92"/><line class="cls-5" x1="396.99" y1="166.92" x2="32.5" y2="166.92"/><line class="cls-1" x1="31.5" y1="166.92" x2="30.5" y2="166.92"/><text class="cls-2" transform="translate(0 169.58)">723°C</text><text class="cls-2" transform="translate(0 13.58)">910°C</text><line x1="251" y1="10.42" x2="251" y2="179.92"/><line class="cls-1" x1="251" y1="10.42" x2="251" y2="11.42"/><line class="cls-6" x1="251" y1="13.43" x2="251" y2="177.91"/><line class="cls-1" x1="251" y1="178.92" x2="251" y2="179.92"/><text class="cls-2" transform="translate(207.36 194.67)">Hypoeutectoid alloy<tspan x="23.91" y="12">(0.4% C)</tspan></text><line x1="250.5" y1="101.92" x2="77.5" y2="101.92"/><line class="cls-1" x1="250.5" y1="101.92" x2="249.5" y2="101.92"/><line class="cls-7" x1="247.49" y1="101.92" x2="79.51" y2="101.92"/><line class="cls-1" x1="78.5" y1="101.92" x2="77.5" y2="101.92"/><text class="cls-2" transform="translate(100.43 73.19)">α + γ</text><text class="cls-2" transform="translate(193.15 40.36)">γ</text><line x1="301" y1="123.92" x2="85" y2="123.92"/><line class="cls-1" x1="301" y1="123.92" x2="300" y2="123.92"/><line class="cls-8" x1="298" y1="123.92" x2="87" y2="123.92"/><line class="cls-1" x1="86" y1="123.92" x2="85" y2="123.92"/><line x1="351" y1="145.25" x2="92" y2="145.25"/><line class="cls-1" x1="351" y1="145.25" x2="350" y2="145.25"/><line class="cls-9" x1="348.01" y1="145.25" x2="94" y2="145.25"/><line class="cls-1" x1="93" y1="145.25" x2="92" y2="145.25"/><text class="cls-2" transform="translate(37.99 69.1)">α</text><line x1="274.5" y1="80.42" x2="253.5" y2="99.42"/><line class="cls-1" x1="274.5" y1="80.42" x2="254.35" y2="98.65"/><polygon points="254.69 96.06 254.57 98.45 256.96 98.57 255.9 99.54 253.5 99.42 253.62 97.02 254.69 96.06"/><text class="cls-10" transform="translate(256.85 77.08)">Alloy composition: 100% γ</text><line x1="323.5" y1="103.42" x2="302.5" y2="122.42"/><line class="cls-1" x1="323.5" y1="103.42" x2="303.35" y2="121.65"/><polygon points="303.69 119.06 303.57 121.45 305.96 121.57 304.89 122.54 302.5 122.42 302.62 120.02 303.69 119.06"/><text class="cls-10" transform="translate(285.85 100.08)">Alloy composition: 82.8% γ, 17.2% α</text><line x1="371.5" y1="124.42" x2="350.5" y2="143.42"/><line class="cls-1" x1="371.5" y1="124.42" x2="351.35" y2="142.65"/><polygon points="351.69 140.06 351.57 142.45 353.96 142.57 352.89 143.54 350.5 143.42 350.62 141.02 351.69 140.06"/><text class="cls-10" transform="translate(333.85 121.08)">Alloy composition: 65.6% γ, 34.4% α</text><line x1="422.5" y1="146.42" x2="401.5" y2="165.42"/><line class="cls-1" x1="422.5" y1="146.42" x2="402.35" y2="164.65"/><polygon points="402.69 162.06 402.57 164.45 404.96 164.57 403.89 165.54 401.5 165.42 401.62 163.02 402.69 162.06"/><text class="cls-10" transform="translate(374.85 143.08)">Alloy composition: 48.4% γ, 51.6% α</text><path class="cls-11" d="M73.1,102.5l-.86.29c-3.5,1.2-4.4,4.1-2.91,8.47l2.57,7.5c1.51,4.42,1,7.61-1.52,9.32,3.15-.06,5.28,1.69,6.93,6.49L79.84,142c1.62,4.74,4.77,6.08,7.61,5.1l.8-.27"/><text class="cls-2" transform="translate(30.1 131.77)">tie-lines</text></g></g></svg>