<svg xmlns="http://www.w3.org/2000/svg" viewBox="0 0 435.99 69.25"><defs><style>.cls-1,.cls-4{fill:none;stroke:#000;stroke-miterlimit:10;}.cls-1{stroke-width:2px;}.cls-2,.cls-3{font-size:9px;font-family:ArialMT, Arial;}.cls-3{letter-spacing:-0.02em;}</style></defs><title>Asset 4</title><g id="Layer_2" data-name="Layer 2"><g id="Layer_1-2" data-name="Layer 1"><line class="cls-1" x1="34.6" y1="42.8" x2="392.6" y2="42.8"/><text class="cls-2" transform="translate(32.33 28.52)">X</text><text class="cls-3" transform="translate(389.25 28.52)">Y</text><text class="cls-2" transform="translate(5.49 55.52)">0.025% carbon<tspan x="-5.49" y="10.8">(i.e., 100% ferrite)</tspan></text><text class="cls-2" transform="translate(364.45 55.52)">6.67% carbon<tspan x="-16" y="10.8">(i.e., 100% cementite)</tspan></text><line class="cls-4" x1="148.1" y1="30.8" x2="148.1" y2="39.66"/><polygon points="146.41 37.66 148.1 39.36 149.8 37.66 149.8 39.1 148.1 40.8 146.41 39.1 146.41 37.66"/><text class="cls-2" transform="translate(145.35 28.52)">Z</text><text class="cls-2" transform="translate(123.04 7.72)">0.8% carbon<tspan x="-13.75" y="10.8">(i.e., 100% pearlite)</tspan></text><line class="cls-4" x1="35.33" y1="30.8" x2="35.33" y2="39.66"/><polygon points="33.63 37.66 35.33 39.36 37.02 37.66 37.02 39.1 35.33 40.8 33.63 39.1 33.63 37.66"/><line class="cls-4" x1="392.24" y1="30.8" x2="392.24" y2="39.66"/><polygon points="390.54 37.66 392.24 39.36 393.93 37.66 393.93 39.1 392.24 40.8 390.54 39.1 390.54 37.66"/><polygon points="147.97 43.39 143.33 51.42 152.6 51.42 147.97 43.39"/></g></g></svg>