<svg xmlns="http://www.w3.org/2000/svg" viewBox="0 0 574.86 421.58"><defs><style>.cls-1,.cls-2,.cls-3{fill:none;stroke:#000;stroke-miterlimit:10;stroke-width:2px;}.cls-2{stroke-dasharray:4 4;}.cls-3{stroke-dasharray:3.96 3.96;}.cls-4{font-size:16px;font-family:ArialMT, Arial;}</style></defs><title>variation_of_free_energy_with_radius</title><g id="Layer_2" data-name="Layer 2"><g id="Layer_1-2" data-name="Layer 1"><line class="cls-1" x1="40" y1="363.96" x2="572.69" y2="363.96"/><polygon points="566.06 372.14 564.7 370.67 571.92 363.96 564.7 357.24 566.06 355.78 574.86 363.96 566.06 372.14"/><line class="cls-1" x1="40" y1="2.17" x2="40" y2="363.96"/><polygon points="31.82 8.8 33.28 10.16 40 2.94 46.71 10.16 48.18 8.8 40 0 31.82 8.8"/><path class="cls-1" d="M40,364c136.46-19.1,183.92-243,320.07-245.54,123-2.29,130.92,230.4,193.42,302.5"/><line class="cls-1" x1="360.07" y1="118.42" x2="358.07" y2="118.42"/><line class="cls-2" x1="354.07" y1="118.42" x2="44" y2="118.42"/><line class="cls-1" x1="42" y1="118.42" x2="40" y2="118.42"/><line class="cls-1" x1="360.07" y1="363.96" x2="360.07" y2="361.96"/><line class="cls-3" x1="360.07" y1="358" x2="360.07" y2="122.4"/><line class="cls-1" x1="360.07" y1="120.42" x2="360.07" y2="118.42"/><text class="cls-4" transform="translate(168.47 356.76)">Embryos</text><text class="cls-4" transform="translate(370.79 356.76)">Supercritical Nuclei</text><text class="cls-4" transform="translate(354.3 379.76)">r*</text><text class="cls-4" transform="translate(0.02 122.68)">ΔG*</text><text class="cls-4" transform="translate(240.3 398.76)">Nucleus Size (r) →</text><text class="cls-4" transform="translate(32.8 203.76) rotate(-90)">ΔG →</text><text class="cls-4" transform="matrix(0.65, -0.76, 0.76, 0.65, 156.42, 279.02)">←</text><text class="cls-4" transform="matrix(0.64, -0.77, 0.77, 0.64, 166.74, 266.88)"> </text><text class="cls-4" transform="translate(169.59 263.46) rotate(-50.83)">S</text><text class="cls-4" transform="translate(176.29 255.23) rotate(-51.34)">h</text><text class="cls-4" transform="matrix(0.62, -0.78, 0.78, 0.62, 181.85, 248.27)">r</text><text class="cls-4" transform="matrix(0.62, -0.79, 0.79, 0.62, 185.16, 244.09)">i</text><text class="cls-4" transform="matrix(0.62, -0.79, 0.79, 0.62, 187.35, 241.32)">n</text><text class="cls-4" transform="matrix(0.62, -0.79, 0.79, 0.62, 192.84, 234.32)">k</text><text class="cls-4" transform="translate(197.78 228.01) rotate(-51.94)">a</text><text class="cls-4" transform="translate(203.26 221.01) rotate(-51.79)">g</text><text class="cls-4" transform="translate(208.75 214.03) rotate(-51.52)">e</text><text class="cls-4" transform="translate(474.55 214.65) rotate(67.18)">G</text><text class="cls-4" transform="translate(479.33 226.09) rotate(68.13)">r</text><text class="cls-4" transform="matrix(0.36, 0.93, -0.93, 0.36, 481.31, 230.99)">o</text><text class="cls-4" transform="translate(484.52 239.25) rotate(69.61)">w</text><text class="cls-4" transform="translate(488.52 250.06) rotate(70.15)">t</text><text class="cls-4" transform="translate(490.03 254.23) rotate(70.53)">h</text><text class="cls-4" transform="translate(492.99 262.62) rotate(70.85)"> </text><text class="cls-4" transform="matrix(0.32, 0.95, -0.95, 0.32, 494.45, 266.78)">→</text></g></g></svg>